<svg width="1451" height="440" viewBox="0 0 1451 440" fill="none" xmlns="http://www.w3.org/2000/svg">
<path d="M1 7.33301C37.225 7.33301 37.225 14.6663 73.45 14.6663C109.675 14.6663 109.675 7.33301 145.9 7.33301C182.125 7.33301 182.125 14.6663 218.35 14.6663C254.575 14.6663 254.575 7.33301 290.8 7.33301C327.025 7.33301 327.025 14.6663 363.25 14.6663C399.475 14.6663 399.475 7.33301 435.7 7.33301C471.925 7.33301 471.925 14.6663 508.15 14.6663C544.375 14.6663 544.375 7.33301 580.6 7.33301C616.825 7.33301 616.825 14.6663 653.05 14.6663C689.275 14.6663 689.275 7.33301 725.5 7.33301C761.725 7.33301 761.725 14.6663 797.95 14.6663C834.175 14.6663 834.175 7.33301 870.4 7.33301C899.078 7.33301 906.625 14.6663 942.85 14.6663C979.075 14.6663 979.075 7.33301 1015.3 7.33301C1051.52 7.33301 1051.52 14.6663 1087.75 14.6663C1123.97 14.6663 1123.97 7.33301 1160.2 7.33301C1196.42 7.33301 1196.42 14.6663 1232.65 14.6663C1268.87 14.6663 1268.87 7.33301 1305.1 7.33301C1341.32 7.33301 1341.32 14.6663 1377.55 14.6663C1413.77 14.6663 1413.77 7.33301 1450 7.33301" stroke="#F29559" stroke-width="2" stroke-linecap="round"/>
<path d="M1 29.333C37.225 29.333 37.225 36.6663 73.45 36.6663C109.675 36.6663 109.675 29.333 145.9 29.333C182.125 29.333 182.125 36.6663 218.35 36.6663C254.575 36.6663 254.575 29.333 290.8 29.333C327.025 29.333 327.025 36.6663 363.25 36.6663C399.475 36.6663 399.475 29.333 435.7 29.333C471.925 29.333 471.925 36.6663 508.15 36.6663C544.375 36.6663 544.375 29.333 580.6 29.333C616.825 29.333 616.825 36.6663 653.05 36.6663C689.275 36.6663 689.275 29.333 725.5 29.333C761.725 29.333 761.725 36.6663 797.95 36.6663C834.175 36.6663 834.175 29.333 870.4 29.333C899.078 29.333 906.625 36.6663 942.85 36.6663C979.075 36.6663 979.075 29.333 1015.3 29.333C1051.53 29.333 1051.53 36.6663 1087.75 36.6663C1123.98 36.6663 1123.98 29.333 1160.2 29.333C1196.43 29.333 1196.43 36.6663 1232.65 36.6663C1268.88 36.6663 1268.88 29.333 1305.1 29.333C1341.33 29.333 1341.33 36.6663 1377.55 36.6663C1413.78 36.6663 1413.78 29.333 1450 29.333" stroke="#F29559" stroke-width="2" stroke-linecap="round"/>
<path d="M1 51.333C37.225 51.333 37.225 58.6663 73.45 58.6663C109.675 58.6663 109.675 51.333 145.9 51.333C182.125 51.333 182.125 58.6663 218.35 58.6663C254.575 58.6663 254.575 51.333 290.8 51.333C327.025 51.333 327.025 58.6663 363.25 58.6663C399.475 58.6663 399.475 51.333 435.7 51.333C471.925 51.333 471.925 58.6663 508.15 58.6663C544.375 58.6663 544.375 51.333 580.6 51.333C616.825 51.333 616.825 58.6663 653.05 58.6663C689.275 58.6663 689.275 51.333 725.5 51.333C761.725 51.333 761.725 58.6663 797.95 58.6663C834.175 58.6663 834.175 51.333 870.4 51.333C899.078 51.333 906.625 58.6663 942.85 58.6663C979.075 58.6663 979.075 51.333 1015.3 51.333C1051.53 51.333 1051.53 58.6663 1087.75 58.6663C1123.98 58.6663 1123.98 51.333 1160.2 51.333C1196.43 51.333 1196.43 58.6663 1232.65 58.6663C1268.88 58.6663 1268.88 51.333 1305.1 51.333C1341.33 51.333 1341.33 58.6663 1377.55 58.6663C1413.78 58.6663 1413.78 51.333 1450 51.333" stroke="#F29559" stroke-width="2" stroke-linecap="round"/>
<path d="M1 73.333C37.225 73.333 37.225 80.6663 73.45 80.6663C109.675 80.6663 109.675 73.333 145.9 73.333C182.125 73.333 182.125 80.6663 218.35 80.6663C254.575 80.6663 254.575 73.333 290.8 73.333C327.025 73.333 327.025 80.6663 363.25 80.6663C399.475 80.6663 399.475 73.333 435.7 73.333C471.925 73.333 471.925 80.6663 508.15 80.6663C544.375 80.6663 544.375 73.333 580.6 73.333C616.825 73.333 616.825 80.6663 653.05 80.6663C689.275 80.6663 689.275 73.333 725.5 73.333C761.725 73.333 761.725 80.6663 797.95 80.6663C834.175 80.6663 834.175 73.333 870.4 73.333C899.078 73.333 906.625 80.6663 942.85 80.6663C979.075 80.6663 979.075 73.333 1015.3 73.333C1051.53 73.333 1051.53 80.6663 1087.75 80.6663C1123.98 80.6663 1123.98 73.333 1160.2 73.333C1196.43 73.333 1196.43 80.6663 1232.65 80.6663C1268.88 80.6663 1268.88 73.333 1305.1 73.333C1341.33 73.333 1341.33 80.6663 1377.55 80.6663C1413.78 80.6663 1413.78 73.333 1450 73.333" stroke="#F29559" stroke-width="2" stroke-linecap="round"/>
<path d="M1 95.333C37.225 95.333 37.225 102.666 73.45 102.666C109.675 102.666 109.675 95.333 145.9 95.333C182.125 95.333 182.125 102.666 218.35 102.666C254.575 102.666 254.575 95.333 290.8 95.333C327.025 95.333 327.025 102.666 363.25 102.666C399.475 102.666 399.475 95.333 435.7 95.333C471.925 95.333 471.925 102.666 508.15 102.666C544.375 102.666 544.375 95.333 580.6 95.333C616.825 95.333 616.825 102.666 653.05 102.666C689.275 102.666 689.275 95.333 725.5 95.333C761.725 95.333 761.725 102.666 797.95 102.666C834.175 102.666 834.175 95.333 870.4 95.333C899.078 95.333 906.625 102.666 942.85 102.666C979.075 102.666 979.075 95.333 1015.3 95.333C1051.53 95.333 1051.53 102.666 1087.75 102.666C1123.98 102.666 1123.98 95.333 1160.2 95.333C1196.43 95.333 1196.43 102.666 1232.65 102.666C1268.88 102.666 1268.88 95.333 1305.1 95.333C1341.33 95.333 1341.33 102.666 1377.55 102.666C1413.78 102.666 1413.78 95.333 1450 95.333" stroke="#F29559" stroke-width="2" stroke-linecap="round"/>
<path d="M1 117.333C37.225 117.333 37.225 124.666 73.45 124.666C109.675 124.666 109.675 117.333 145.9 117.333C182.125 117.333 182.125 124.666 218.35 124.666C254.575 124.666 254.575 117.333 290.8 117.333C327.025 117.333 327.025 124.666 363.25 124.666C399.475 124.666 399.475 117.333 435.7 117.333C471.925 117.333 471.925 124.666 508.15 124.666C544.375 124.666 544.375 117.333 580.6 117.333C616.825 117.333 616.825 124.666 653.05 124.666C689.275 124.666 689.275 117.333 725.5 117.333C761.725 117.333 761.725 124.666 797.95 124.666C834.175 124.666 834.175 117.333 870.4 117.333C899.078 117.333 906.625 124.666 942.85 124.666C979.075 124.666 979.075 117.333 1015.3 117.333C1051.53 117.333 1051.53 124.666 1087.75 124.666C1123.98 124.666 1123.98 117.333 1160.2 117.333C1196.43 117.333 1196.43 124.666 1232.65 124.666C1268.88 124.666 1268.88 117.333 1305.1 117.333C1341.33 117.333 1341.33 124.666 1377.55 124.666C1413.78 124.666 1413.78 117.333 1450 117.333" stroke="#F29559" stroke-width="2" stroke-linecap="round"/>
<path d="M1 139.333C37.225 139.333 37.225 146.666 73.45 146.666C109.675 146.666 109.675 139.333 145.9 139.333C182.125 139.333 182.125 146.666 218.35 146.666C254.575 146.666 254.575 139.333 290.8 139.333C327.025 139.333 327.025 146.666 363.25 146.666C399.475 146.666 399.475 139.333 435.7 139.333C471.925 139.333 471.925 146.666 508.15 146.666C544.375 146.666 544.375 139.333 580.6 139.333C616.825 139.333 616.825 146.666 653.05 146.666C689.275 146.666 689.275 139.333 725.5 139.333C761.725 139.333 761.725 146.666 797.95 146.666C834.175 146.666 834.175 139.333 870.4 139.333C899.078 139.333 906.625 146.666 942.85 146.666C979.075 146.666 979.075 139.333 1015.3 139.333C1051.53 139.333 1051.53 146.666 1087.75 146.666C1123.98 146.666 1123.98 139.333 1160.2 139.333C1196.43 139.333 1196.43 146.666 1232.65 146.666C1268.88 146.666 1268.88 139.333 1305.1 139.333C1341.33 139.333 1341.33 146.666 1377.55 146.666C1413.78 146.666 1413.78 139.333 1450 139.333" stroke="#F29559" stroke-width="2" stroke-linecap="round"/>
<path d="M1 161.333C37.225 161.333 37.225 168.666 73.45 168.666C109.675 168.666 109.675 161.333 145.9 161.333C182.125 161.333 182.125 168.666 218.35 168.666C254.575 168.666 254.575 161.333 290.8 161.333C327.025 161.333 327.025 168.666 363.25 168.666C399.475 168.666 399.475 161.333 435.7 161.333C471.925 161.333 471.925 168.666 508.15 168.666C544.375 168.666 544.375 161.333 580.6 161.333C616.825 161.333 616.825 168.666 653.05 168.666C689.275 168.666 689.275 161.333 725.5 161.333C761.725 161.333 761.725 168.666 797.95 168.666C834.175 168.666 834.175 161.333 870.4 161.333C899.078 161.333 906.625 168.666 942.85 168.666C979.075 168.666 979.075 161.333 1015.3 161.333C1051.53 161.333 1051.53 168.666 1087.75 168.666C1123.98 168.666 1123.98 161.333 1160.2 161.333C1196.43 161.333 1196.43 168.666 1232.65 168.666C1268.88 168.666 1268.88 161.333 1305.1 161.333C1341.33 161.333 1341.33 168.666 1377.55 168.666C1413.78 168.666 1413.78 161.333 1450 161.333" stroke="#F29559" stroke-width="2" stroke-linecap="round"/>
<path d="M1 183.333C37.225 183.333 37.225 190.666 73.45 190.666C109.675 190.666 109.675 183.333 145.9 183.333C182.125 183.333 182.125 190.666 218.35 190.666C254.575 190.666 254.575 183.333 290.8 183.333C327.025 183.333 327.025 190.666 363.25 190.666C399.475 190.666 399.475 183.333 435.7 183.333C471.925 183.333 471.925 190.666 508.15 190.666C544.375 190.666 544.375 183.333 580.6 183.333C616.825 183.333 616.825 190.666 653.05 190.666C689.275 190.666 689.275 183.333 725.5 183.333C761.725 183.333 761.725 190.666 797.95 190.666C834.175 190.666 834.175 183.333 870.4 183.333C899.078 183.333 906.625 190.666 942.85 190.666C979.075 190.666 979.075 183.333 1015.3 183.333C1051.53 183.333 1051.53 190.666 1087.75 190.666C1123.98 190.666 1123.98 183.333 1160.2 183.333C1196.43 183.333 1196.43 190.666 1232.65 190.666C1268.88 190.666 1268.88 183.333 1305.1 183.333C1341.33 183.333 1341.33 190.666 1377.55 190.666C1413.78 190.666 1413.78 183.333 1450 183.333" stroke="#F29559" stroke-width="2" stroke-linecap="round"/>
<path d="M1 205.333C37.225 205.333 37.225 212.666 73.45 212.666C109.675 212.666 109.675 205.333 145.9 205.333C182.125 205.333 182.125 212.666 218.35 212.666C254.575 212.666 254.575 205.333 290.8 205.333C327.025 205.333 327.025 212.666 363.25 212.666C399.475 212.666 399.475 205.333 435.7 205.333C471.925 205.333 471.925 212.666 508.15 212.666C544.375 212.666 544.375 205.333 580.6 205.333C616.825 205.333 616.825 212.666 653.05 212.666C689.275 212.666 689.275 205.333 725.5 205.333C761.725 205.333 761.725 212.666 797.95 212.666C834.175 212.666 834.175 205.333 870.4 205.333C899.078 205.333 906.625 212.666 942.85 212.666C979.075 212.666 979.075 205.333 1015.3 205.333C1051.53 205.333 1051.53 212.666 1087.75 212.666C1123.98 212.666 1123.98 205.333 1160.2 205.333C1196.43 205.333 1196.43 212.666 1232.65 212.666C1268.88 212.666 1268.88 205.333 1305.1 205.333C1341.33 205.333 1341.33 212.666 1377.55 212.666C1413.78 212.666 1413.78 205.333 1450 205.333" stroke="#F29559" stroke-width="2" stroke-linecap="round"/>
<path d="M1 227.333C37.225 227.333 37.225 234.666 73.45 234.666C109.675 234.666 109.675 227.333 145.9 227.333C182.125 227.333 182.125 234.666 218.35 234.666C254.575 234.666 254.575 227.333 290.8 227.333C327.025 227.333 327.025 234.666 363.25 234.666C399.475 234.666 399.475 227.333 435.7 227.333C471.925 227.333 471.925 234.666 508.15 234.666C544.375 234.666 544.375 227.333 580.6 227.333C616.825 227.333 616.825 234.666 653.05 234.666C689.275 234.666 689.275 227.333 725.5 227.333C761.725 227.333 761.725 234.666 797.95 234.666C834.175 234.666 834.175 227.333 870.4 227.333C899.078 227.333 906.625 234.666 942.85 234.666C979.075 234.666 979.075 227.333 1015.3 227.333C1051.53 227.333 1051.53 234.666 1087.75 234.666C1123.98 234.666 1123.98 227.333 1160.2 227.333C1196.43 227.333 1196.43 234.666 1232.65 234.666C1268.88 234.666 1268.88 227.333 1305.1 227.333C1341.33 227.333 1341.33 234.666 1377.55 234.666C1413.78 234.666 1413.78 227.333 1450 227.333" stroke="#F29559" stroke-width="2" stroke-linecap="round"/>
<path d="M1 249.333C37.225 249.333 37.225 256.666 73.45 256.666C109.675 256.666 109.675 249.333 145.9 249.333C182.125 249.333 182.125 256.666 218.35 256.666C254.575 256.666 254.575 249.333 290.8 249.333C327.025 249.333 327.025 256.666 363.25 256.666C399.475 256.666 399.475 249.333 435.7 249.333C471.925 249.333 471.925 256.666 508.15 256.666C544.375 256.666 544.375 249.333 580.6 249.333C616.825 249.333 616.825 256.666 653.05 256.666C689.275 256.666 689.275 249.333 725.5 249.333C761.725 249.333 761.725 256.666 797.95 256.666C834.175 256.666 834.175 249.333 870.4 249.333C899.078 249.333 906.625 256.666 942.85 256.666C979.075 256.666 979.075 249.333 1015.3 249.333C1051.53 249.333 1051.53 256.666 1087.75 256.666C1123.98 256.666 1123.98 249.333 1160.2 249.333C1196.43 249.333 1196.43 256.666 1232.65 256.666C1268.88 256.666 1268.88 249.333 1305.1 249.333C1341.33 249.333 1341.33 256.666 1377.55 256.666C1413.78 256.666 1413.78 249.333 1450 249.333" stroke="#F29559" stroke-width="2" stroke-linecap="round"/>
<path d="M1 271.333C37.225 271.333 37.225 278.666 73.45 278.666C109.675 278.666 109.675 271.333 145.9 271.333C182.125 271.333 182.125 278.666 218.35 278.666C254.575 278.666 254.575 271.333 290.8 271.333C327.025 271.333 327.025 278.666 363.25 278.666C399.475 278.666 399.475 271.333 435.7 271.333C471.925 271.333 471.925 278.666 508.15 278.666C544.375 278.666 544.375 271.333 580.6 271.333C616.825 271.333 616.825 278.666 653.05 278.666C689.275 278.666 689.275 271.333 725.5 271.333C761.725 271.333 761.725 278.666 797.95 278.666C834.175 278.666 834.175 271.333 870.4 271.333C899.078 271.333 906.625 278.666 942.85 278.666C979.075 278.666 979.075 271.333 1015.3 271.333C1051.53 271.333 1051.53 278.666 1087.75 278.666C1123.98 278.666 1123.98 271.333 1160.2 271.333C1196.43 271.333 1196.43 278.666 1232.65 278.666C1268.88 278.666 1268.88 271.333 1305.1 271.333C1341.33 271.333 1341.33 278.666 1377.55 278.666C1413.78 278.666 1413.78 271.333 1450 271.333" stroke="#F29559" stroke-width="2" stroke-linecap="round"/>
<path d="M1 293.333C37.225 293.333 37.225 300.666 73.45 300.666C109.675 300.666 109.675 293.333 145.9 293.333C182.125 293.333 182.125 300.666 218.35 300.666C254.575 300.666 254.575 293.333 290.8 293.333C327.025 293.333 327.025 300.666 363.25 300.666C399.475 300.666 399.475 293.333 435.7 293.333C471.925 293.333 471.925 300.666 508.15 300.666C544.375 300.666 544.375 293.333 580.6 293.333C616.825 293.333 616.825 300.666 653.05 300.666C689.275 300.666 689.275 293.333 725.5 293.333C761.725 293.333 761.725 300.666 797.95 300.666C834.175 300.666 834.175 293.333 870.4 293.333C899.078 293.333 906.625 300.666 942.85 300.666C979.075 300.666 979.075 293.333 1015.3 293.333C1051.53 293.333 1051.53 300.666 1087.75 300.666C1123.98 300.666 1123.98 293.333 1160.2 293.333C1196.43 293.333 1196.43 300.666 1232.65 300.666C1268.88 300.666 1268.88 293.333 1305.1 293.333C1341.33 293.333 1341.33 300.666 1377.55 300.666C1413.78 300.666 1413.78 293.333 1450 293.333" stroke="#F29559" stroke-width="2" stroke-linecap="round"/>
<path d="M1 315.333C37.225 315.333 37.225 322.666 73.45 322.666C109.675 322.666 109.675 315.333 145.9 315.333C182.125 315.333 182.125 322.666 218.35 322.666C254.575 322.666 254.575 315.333 290.8 315.333C327.025 315.333 327.025 322.666 363.25 322.666C399.475 322.666 399.475 315.333 435.7 315.333C471.925 315.333 471.925 322.666 508.15 322.666C544.375 322.666 544.375 315.333 580.6 315.333C616.825 315.333 616.825 322.666 653.05 322.666C689.275 322.666 689.275 315.333 725.5 315.333C761.725 315.333 761.725 322.666 797.95 322.666C834.175 322.666 834.175 315.333 870.4 315.333C899.078 315.333 906.625 322.666 942.85 322.666C979.075 322.666 979.075 315.333 1015.3 315.333C1051.53 315.333 1051.53 322.666 1087.75 322.666C1123.98 322.666 1123.98 315.333 1160.2 315.333C1196.43 315.333 1196.43 322.666 1232.65 322.666C1268.88 322.666 1268.88 315.333 1305.1 315.333C1341.33 315.333 1341.33 322.666 1377.55 322.666C1413.78 322.666 1413.78 315.333 1450 315.333" stroke="#F29559" stroke-width="2" stroke-linecap="round"/>
<path d="M1 337.333C37.225 337.333 37.225 344.666 73.45 344.666C109.675 344.666 109.675 337.333 145.9 337.333C182.125 337.333 182.125 344.666 218.35 344.666C254.575 344.666 254.575 337.333 290.8 337.333C327.025 337.333 327.025 344.666 363.25 344.666C399.475 344.666 399.475 337.333 435.7 337.333C471.925 337.333 471.925 344.666 508.15 344.666C544.375 344.666 544.375 337.333 580.6 337.333C616.825 337.333 616.825 344.666 653.05 344.666C689.275 344.666 689.275 337.333 725.5 337.333C761.725 337.333 761.725 344.666 797.95 344.666C834.175 344.666 834.175 337.333 870.4 337.333C899.078 337.333 906.625 344.666 942.85 344.666C979.075 344.666 979.075 337.333 1015.3 337.333C1051.53 337.333 1051.53 344.666 1087.75 344.666C1123.98 344.666 1123.98 337.333 1160.2 337.333C1196.43 337.333 1196.43 344.666 1232.65 344.666C1268.88 344.666 1268.88 337.333 1305.1 337.333C1341.33 337.333 1341.33 344.666 1377.55 344.666C1413.78 344.666 1413.78 337.333 1450 337.333" stroke="#F29559" stroke-width="2" stroke-linecap="round"/>
<path d="M1 359.333C37.225 359.333 37.225 366.666 73.45 366.666C109.675 366.666 109.675 359.333 145.9 359.333C182.125 359.333 182.125 366.666 218.35 366.666C254.575 366.666 254.575 359.333 290.8 359.333C327.025 359.333 327.025 366.666 363.25 366.666C399.475 366.666 399.475 359.333 435.7 359.333C471.925 359.333 471.925 366.666 508.15 366.666C544.375 366.666 544.375 359.333 580.6 359.333C616.825 359.333 616.825 366.666 653.05 366.666C689.275 366.666 689.275 359.333 725.5 359.333C761.725 359.333 761.725 366.666 797.95 366.666C834.175 366.666 834.175 359.333 870.4 359.333C899.078 359.333 906.625 366.666 942.85 366.666C979.075 366.666 979.075 359.333 1015.3 359.333C1051.53 359.333 1051.53 366.666 1087.75 366.666C1123.98 366.666 1123.98 359.333 1160.2 359.333C1196.43 359.333 1196.43 366.666 1232.65 366.666C1268.88 366.666 1268.88 359.333 1305.1 359.333C1341.33 359.333 1341.33 366.666 1377.55 366.666C1413.78 366.666 1413.78 359.333 1450 359.333" stroke="#F29559" stroke-width="2" stroke-linecap="round"/>
<path d="M1 381.333C37.225 381.333 37.225 388.666 73.45 388.666C109.675 388.666 109.675 381.333 145.9 381.333C182.125 381.333 182.125 388.666 218.35 388.666C254.575 388.666 254.575 381.333 290.8 381.333C327.025 381.333 327.025 388.666 363.25 388.666C399.475 388.666 399.475 381.333 435.7 381.333C471.925 381.333 471.925 388.666 508.15 388.666C544.375 388.666 544.375 381.333 580.6 381.333C616.825 381.333 616.825 388.666 653.05 388.666C689.275 388.666 689.275 381.333 725.5 381.333C761.725 381.333 761.725 388.666 797.95 388.666C834.175 388.666 834.175 381.333 870.4 381.333C899.078 381.333 906.625 388.666 942.85 388.666C979.075 388.666 979.075 381.333 1015.3 381.333C1051.53 381.333 1051.53 388.666 1087.75 388.666C1123.98 388.666 1123.98 381.333 1160.2 381.333C1196.43 381.333 1196.43 388.666 1232.65 388.666C1268.88 388.666 1268.88 381.333 1305.1 381.333C1341.33 381.333 1341.33 388.666 1377.55 388.666C1413.78 388.666 1413.78 381.333 1450 381.333" stroke="#F29559" stroke-width="2" stroke-linecap="round"/>
<path d="M1 403.333C37.225 403.333 37.225 410.666 73.45 410.666C109.675 410.666 109.675 403.333 145.9 403.333C182.125 403.333 182.125 410.666 218.35 410.666C254.575 410.666 254.575 403.333 290.8 403.333C327.025 403.333 327.025 410.666 363.25 410.666C399.475 410.666 399.475 403.333 435.7 403.333C471.925 403.333 471.925 410.666 508.15 410.666C544.375 410.666 544.375 403.333 580.6 403.333C616.825 403.333 616.825 410.666 653.05 410.666C689.275 410.666 689.275 403.333 725.5 403.333C761.725 403.333 761.725 410.666 797.95 410.666C834.175 410.666 834.175 403.333 870.4 403.333C899.078 403.333 906.625 410.666 942.85 410.666C979.075 410.666 979.075 403.333 1015.3 403.333C1051.53 403.333 1051.53 410.666 1087.75 410.666C1123.98 410.666 1123.98 403.333 1160.2 403.333C1196.43 403.333 1196.43 410.666 1232.65 410.666C1268.88 410.666 1268.88 403.333 1305.1 403.333C1341.33 403.333 1341.33 410.666 1377.55 410.666C1413.78 410.666 1413.78 403.333 1450 403.333" stroke="#F29559" stroke-width="2" stroke-linecap="round"/>
<path d="M1 425.333C37.225 425.333 37.225 432.666 73.45 432.666C109.675 432.666 109.675 425.333 145.9 425.333C182.125 425.333 182.125 432.666 218.35 432.666C254.575 432.666 254.575 425.333 290.8 425.333C327.025 425.333 327.025 432.666 363.25 432.666C399.475 432.666 399.475 425.333 435.7 425.333C471.925 425.333 471.925 432.666 508.15 432.666C544.375 432.666 544.375 425.333 580.6 425.333C616.825 425.333 616.825 432.666 653.05 432.666C689.275 432.666 689.275 425.333 725.5 425.333C761.725 425.333 761.725 432.666 797.95 432.666C834.175 432.666 834.175 425.333 870.4 425.333C899.078 425.333 906.625 432.666 942.85 432.666C979.075 432.666 979.075 425.333 1015.3 425.333C1051.53 425.333 1051.53 432.666 1087.75 432.666C1123.98 432.666 1123.98 425.333 1160.2 425.333C1196.43 425.333 1196.43 432.666 1232.65 432.666C1268.88 432.666 1268.88 425.333 1305.1 425.333C1341.33 425.333 1341.33 432.666 1377.55 432.666C1413.78 432.666 1413.78 425.333 1450 425.333" stroke="#F29559" stroke-width="2" stroke-linecap="round"/>
</svg>
